<?xml version="1.0" encoding="UTF-8"?>
<svg viewBox="0 0 82 83" version="1.1" xmlns="http://www.w3.org/2000/svg" xmlns:xlink="http://www.w3.org/1999/xlink">
    <g id="Desktop" stroke="none" stroke-width="1" fill="none" fill-rule="evenodd">
        <g id="desktop-v2" transform="translate(-1317.000000, -3257.000000)">
            <g id="Group-5" transform="translate(1317.000000, 3257.197500)">
                <polygon id="Fill-1" fill="#000000" points="46.3980178 0 41.0009235 16.4 35.6019822 0 34.6341255 17.2385629 25.1753576 2.79459399 28.6995382 19.6951458 15.8255659 8.19168825 23.605361 23.605361 8.19168825 15.8255659 19.6969929 28.6995382 2.79459399 25.1753576 17.2385629 34.6322784 0 35.6019822 16.4 40.9990765 0 46.3980178 17.2385629 47.3677216 2.79459399 56.8246424 19.6969929 53.3004618 8.19168825 66.1744341 23.605361 58.394639 15.8255659 73.8083117 28.6995382 62.3048542 25.1753576 79.205406 34.6341255 64.7614371 35.6019822 82 41.0009235 65.6 46.3980178 82 47.3677216 64.7614371 56.8264895 79.205406 53.3004618 62.3048542 66.1744341 73.8083117 58.394639 58.394639 73.8083117 66.1744341 62.3048542 53.3004618 79.205406 56.8246424 64.7614371 47.3677216 82 46.3980178 65.6 40.9990765 82 35.6019822 64.7614371 34.6322784 79.205406 25.1753576 62.3048542 28.6995382 73.8083117 15.8255659 58.394639 23.605361 66.1744341 8.19168825 53.3004618 19.6951458 56.8264895 2.79459399 47.3677216 17.2385629"></polygon>
                <polyline id="Path" stroke="#FFFFFF" stroke-width="2" transform="translate(41.128292, 39.872842) rotate(-135.000000) translate(-41.128292, -39.872842) " points="49.628292 31.372842 49.628292 48.372842 32.628292 48.372842"></polyline>
                <line x1="41.2470026" y1="27.9083128" x2="41.2470026" y2="55.2615824" id="Path-2" stroke="#FFFFFF" stroke-width="2"></line>
            </g>
        </g>
    </g>
</svg>