<?xml version="1.0" encoding="UTF-8"?>
<svg viewBox="0 0 49 49" version="1.1" xmlns="http://www.w3.org/2000/svg" xmlns:xlink="http://www.w3.org/1999/xlink">
    <g id="Mobile" stroke="none" stroke-width="1" fill="none" fill-rule="evenodd">
        <g id="project/teascompany" transform="translate(-333.000000, -6.000000)">
            <g id="Group-5" transform="translate(333.000000, 6.000000)">
                <polygon id="Fill-1" fill="#000000" points="27.7256448 0 24.5005519 9.8 21.2743552 0 20.6960018 10.3010925 15.0438112 1.66994031 17.1497241 11.7690506 9.45674062 4.89503322 14.1056425 14.1056425 4.89503322 9.45674062 11.7701543 17.1497241 1.66994031 15.0438112 10.3010925 20.6948981 0 21.2743552 9.8 24.4994481 0 27.7256448 10.3010925 28.3051019 1.66994031 33.9561888 11.7701543 31.8502759 4.89503322 39.5432594 14.1056425 34.8943575 9.45674062 44.1049668 17.1497241 37.2309494 15.0438112 47.3300597 20.6960018 38.6989075 21.2743552 49 24.5005519 39.2 27.7256448 49 28.3051019 38.6989075 33.9572925 47.3300597 31.8502759 37.2309494 39.5432594 44.1049668 34.8943575 34.8943575 44.1049668 39.5432594 37.2309494 31.8502759 47.3300597 33.9561888 38.6989075 28.3051019 49 27.7256448 39.2 24.4994481 49 21.2743552 38.6989075 20.6948981 47.3300597 15.0438112 37.2309494 17.1497241 44.1049668 9.45674062 34.8943575 14.1056425 39.5432594 4.89503322 31.8502759 11.7690506 33.9572925 1.66994031 28.3051019 10.3010925"></polygon>
                <line x1="19" y1="19" x2="30.5578346" y2="30.5578346" id="Path-2" stroke="#FFFFFF" stroke-width="1.2"></line>
                <line x1="19" y1="30.5578346" x2="30.5578346" y2="19" id="Path-2" stroke="#FFFFFF" stroke-width="1.2"></line>
            </g>
        </g>
    </g>
</svg>